<mxfile host="app.diagrams.net" agent="Mozilla/5.0 (Windows NT 10.0; Win64; x64) AppleWebKit/537.36 (KHTML, like Gecko) Chrome/134.0.0.0 Safari/537.36" version="26.1.0">
  <diagram name="第 1 页" id="iQ7srxk4YWTIxksb6oVG">
    <mxGraphModel dx="1185" dy="627" grid="1" gridSize="10" guides="1" tooltips="1" connect="1" arrows="1" fold="1" page="1" pageScale="1" pageWidth="827" pageHeight="1169" math="0" shadow="0">
      <root>
        <mxCell id="0" />
        <mxCell id="1" parent="0" />
        <mxCell id="WESP8O3cPXHoL07Lp8WO-1" value="" style="shape=table;startSize=0;container=1;collapsible=0;childLayout=tableLayout;fontFamily=Times New Roman;fontSize=20;" vertex="1" parent="1">
          <mxGeometry x="100" y="230" width="540" height="50" as="geometry" />
        </mxCell>
        <mxCell id="WESP8O3cPXHoL07Lp8WO-2" value="" style="shape=tableRow;horizontal=0;startSize=0;swimlaneHead=0;swimlaneBody=0;strokeColor=inherit;top=0;left=0;bottom=0;right=0;collapsible=0;dropTarget=0;fillColor=none;points=[[0,0.5],[1,0.5]];portConstraint=eastwest;fontFamily=Times New Roman;fontSize=20;" vertex="1" parent="WESP8O3cPXHoL07Lp8WO-1">
          <mxGeometry width="540" height="50" as="geometry" />
        </mxCell>
        <mxCell id="WESP8O3cPXHoL07Lp8WO-3" value="1" style="shape=partialRectangle;html=1;whiteSpace=wrap;connectable=0;strokeColor=#82b366;overflow=hidden;fillColor=#d5e8d4;top=0;left=0;bottom=0;right=0;pointerEvents=1;fontFamily=Times New Roman;fontSize=20;" vertex="1" parent="WESP8O3cPXHoL07Lp8WO-2">
          <mxGeometry width="60" height="50" as="geometry">
            <mxRectangle width="60" height="50" as="alternateBounds" />
          </mxGeometry>
        </mxCell>
        <mxCell id="WESP8O3cPXHoL07Lp8WO-4" value="2" style="shape=partialRectangle;html=1;whiteSpace=wrap;connectable=0;strokeColor=#82b366;overflow=hidden;fillColor=#d5e8d4;top=0;left=0;bottom=0;right=0;pointerEvents=1;fontFamily=Times New Roman;fontSize=20;sketch=1;curveFitting=1;jiggle=2;" vertex="1" parent="WESP8O3cPXHoL07Lp8WO-2">
          <mxGeometry x="60" width="60" height="50" as="geometry">
            <mxRectangle width="60" height="50" as="alternateBounds" />
          </mxGeometry>
        </mxCell>
        <mxCell id="WESP8O3cPXHoL07Lp8WO-5" value="2" style="shape=partialRectangle;html=1;whiteSpace=wrap;connectable=0;strokeColor=#82b366;overflow=hidden;fillColor=#d5e8d4;top=0;left=0;bottom=0;right=0;pointerEvents=1;fontFamily=Times New Roman;fontSize=20;sketch=1;curveFitting=1;jiggle=2;" vertex="1" parent="WESP8O3cPXHoL07Lp8WO-2">
          <mxGeometry x="120" width="60" height="50" as="geometry">
            <mxRectangle width="60" height="50" as="alternateBounds" />
          </mxGeometry>
        </mxCell>
        <mxCell id="WESP8O3cPXHoL07Lp8WO-6" value="3" style="shape=partialRectangle;html=1;whiteSpace=wrap;connectable=0;strokeColor=#6c8ebf;overflow=hidden;fillColor=#dae8fc;top=0;left=0;bottom=0;right=0;pointerEvents=1;fontFamily=Times New Roman;fontSize=20;" vertex="1" parent="WESP8O3cPXHoL07Lp8WO-2">
          <mxGeometry x="180" width="60" height="50" as="geometry">
            <mxRectangle width="60" height="50" as="alternateBounds" />
          </mxGeometry>
        </mxCell>
        <mxCell id="WESP8O3cPXHoL07Lp8WO-7" value="3" style="shape=partialRectangle;html=1;whiteSpace=wrap;connectable=0;strokeColor=#6c8ebf;overflow=hidden;fillColor=#dae8fc;top=0;left=0;bottom=0;right=0;pointerEvents=1;fontFamily=Times New Roman;fontSize=20;" vertex="1" parent="WESP8O3cPXHoL07Lp8WO-2">
          <mxGeometry x="240" width="60" height="50" as="geometry">
            <mxRectangle width="60" height="50" as="alternateBounds" />
          </mxGeometry>
        </mxCell>
        <mxCell id="WESP8O3cPXHoL07Lp8WO-8" value="2" style="shape=partialRectangle;html=1;whiteSpace=wrap;connectable=0;strokeColor=#6c8ebf;overflow=hidden;fillColor=#dae8fc;top=0;left=0;bottom=0;right=0;pointerEvents=1;fontFamily=Times New Roman;fontSize=20;sketch=1;curveFitting=1;jiggle=2;" vertex="1" parent="WESP8O3cPXHoL07Lp8WO-2">
          <mxGeometry x="300" width="60" height="50" as="geometry">
            <mxRectangle width="60" height="50" as="alternateBounds" />
          </mxGeometry>
        </mxCell>
        <mxCell id="WESP8O3cPXHoL07Lp8WO-9" value="1" style="shape=partialRectangle;html=1;whiteSpace=wrap;connectable=0;strokeColor=#d79b00;overflow=hidden;fillColor=#ffe6cc;top=0;left=0;bottom=0;right=0;pointerEvents=1;fontFamily=Times New Roman;fontSize=20;" vertex="1" parent="WESP8O3cPXHoL07Lp8WO-2">
          <mxGeometry x="360" width="60" height="50" as="geometry">
            <mxRectangle width="60" height="50" as="alternateBounds" />
          </mxGeometry>
        </mxCell>
        <mxCell id="WESP8O3cPXHoL07Lp8WO-10" value="3" style="shape=partialRectangle;html=1;whiteSpace=wrap;connectable=0;strokeColor=default;overflow=hidden;fillColor=#ffe6cc;top=0;left=0;bottom=0;right=0;pointerEvents=1;fontFamily=Times New Roman;fontSize=20;" vertex="1" parent="WESP8O3cPXHoL07Lp8WO-2">
          <mxGeometry x="420" width="60" height="50" as="geometry">
            <mxRectangle width="60" height="50" as="alternateBounds" />
          </mxGeometry>
        </mxCell>
        <mxCell id="WESP8O3cPXHoL07Lp8WO-11" value="3" style="shape=partialRectangle;html=1;whiteSpace=wrap;connectable=0;strokeColor=#d79b00;overflow=hidden;fillColor=#ffe6cc;top=0;left=0;bottom=0;right=0;pointerEvents=1;fontFamily=Times New Roman;fontSize=20;" vertex="1" parent="WESP8O3cPXHoL07Lp8WO-2">
          <mxGeometry x="480" width="60" height="50" as="geometry">
            <mxRectangle width="60" height="50" as="alternateBounds" />
          </mxGeometry>
        </mxCell>
        <mxCell id="WESP8O3cPXHoL07Lp8WO-12" value="MA" style="text;html=1;align=center;verticalAlign=middle;resizable=0;points=[];autosize=1;strokeColor=none;fillColor=none;fontFamily=Times New Roman;fontSize=20;" vertex="1" parent="1">
          <mxGeometry x="20" y="235" width="60" height="40" as="geometry" />
        </mxCell>
        <mxCell id="WESP8O3cPXHoL07Lp8WO-13" value="" style="shape=table;startSize=0;container=1;collapsible=0;childLayout=tableLayout;fontFamily=Times New Roman;fontSize=20;" vertex="1" parent="1">
          <mxGeometry x="100" y="330" width="540" height="50" as="geometry" />
        </mxCell>
        <mxCell id="WESP8O3cPXHoL07Lp8WO-14" value="" style="shape=tableRow;horizontal=0;startSize=0;swimlaneHead=0;swimlaneBody=0;strokeColor=inherit;top=0;left=0;bottom=0;right=0;collapsible=0;dropTarget=0;fillColor=none;points=[[0,0.5],[1,0.5]];portConstraint=eastwest;fontFamily=Times New Roman;fontSize=20;shadow=0;" vertex="1" parent="WESP8O3cPXHoL07Lp8WO-13">
          <mxGeometry width="540" height="50" as="geometry" />
        </mxCell>
        <mxCell id="WESP8O3cPXHoL07Lp8WO-15" value="1" style="shape=partialRectangle;html=1;whiteSpace=wrap;connectable=0;strokeColor=#82b366;overflow=hidden;fillColor=#d5e8d4;top=0;left=0;bottom=0;right=0;pointerEvents=1;fontFamily=Times New Roman;fontSize=20;shadow=0;" vertex="1" parent="WESP8O3cPXHoL07Lp8WO-14">
          <mxGeometry width="60" height="50" as="geometry">
            <mxRectangle width="60" height="50" as="alternateBounds" />
          </mxGeometry>
        </mxCell>
        <mxCell id="WESP8O3cPXHoL07Lp8WO-16" value="2" style="shape=partialRectangle;html=1;whiteSpace=wrap;connectable=0;strokeColor=#82b366;overflow=hidden;fillColor=#d5e8d4;top=0;left=0;bottom=0;right=0;pointerEvents=1;fontFamily=Times New Roman;fontSize=20;shadow=0;sketch=1;curveFitting=1;jiggle=2;" vertex="1" parent="WESP8O3cPXHoL07Lp8WO-14">
          <mxGeometry x="60" width="60" height="50" as="geometry">
            <mxRectangle width="60" height="50" as="alternateBounds" />
          </mxGeometry>
        </mxCell>
        <mxCell id="WESP8O3cPXHoL07Lp8WO-17" value="1" style="shape=partialRectangle;html=1;whiteSpace=wrap;connectable=0;strokeColor=#82b366;overflow=hidden;fillColor=#d5e8d4;top=0;left=0;bottom=0;right=0;pointerEvents=1;fontFamily=Times New Roman;fontSize=20;shadow=0;sketch=1;curveFitting=1;jiggle=2;" vertex="1" parent="WESP8O3cPXHoL07Lp8WO-14">
          <mxGeometry x="120" width="60" height="50" as="geometry">
            <mxRectangle width="60" height="50" as="alternateBounds" />
          </mxGeometry>
        </mxCell>
        <mxCell id="WESP8O3cPXHoL07Lp8WO-18" value="3" style="shape=partialRectangle;html=1;whiteSpace=wrap;connectable=0;strokeColor=#6c8ebf;overflow=hidden;fillColor=#dae8fc;top=0;left=0;bottom=0;right=0;pointerEvents=1;fontFamily=Times New Roman;fontSize=20;shadow=0;" vertex="1" parent="WESP8O3cPXHoL07Lp8WO-14">
          <mxGeometry x="180" width="60" height="50" as="geometry">
            <mxRectangle width="60" height="50" as="alternateBounds" />
          </mxGeometry>
        </mxCell>
        <mxCell id="WESP8O3cPXHoL07Lp8WO-19" value="3" style="shape=partialRectangle;html=1;whiteSpace=wrap;connectable=0;strokeColor=#6c8ebf;overflow=hidden;fillColor=#dae8fc;top=0;left=0;bottom=0;right=0;pointerEvents=1;fontFamily=Times New Roman;fontSize=20;shadow=0;" vertex="1" parent="WESP8O3cPXHoL07Lp8WO-14">
          <mxGeometry x="240" width="60" height="50" as="geometry">
            <mxRectangle width="60" height="50" as="alternateBounds" />
          </mxGeometry>
        </mxCell>
        <mxCell id="WESP8O3cPXHoL07Lp8WO-20" value="2" style="shape=partialRectangle;html=1;whiteSpace=wrap;connectable=0;strokeColor=#6c8ebf;overflow=hidden;fillColor=#dae8fc;top=0;left=0;bottom=0;right=0;pointerEvents=1;fontFamily=Times New Roman;fontSize=20;shadow=0;sketch=1;curveFitting=1;jiggle=2;" vertex="1" parent="WESP8O3cPXHoL07Lp8WO-14">
          <mxGeometry x="300" width="60" height="50" as="geometry">
            <mxRectangle width="60" height="50" as="alternateBounds" />
          </mxGeometry>
        </mxCell>
        <mxCell id="WESP8O3cPXHoL07Lp8WO-21" value="3" style="shape=partialRectangle;html=1;whiteSpace=wrap;connectable=0;strokeColor=#d79b00;overflow=hidden;fillColor=#ffe6cc;top=0;left=0;bottom=0;right=0;pointerEvents=1;fontFamily=Times New Roman;fontSize=20;shadow=0;" vertex="1" parent="WESP8O3cPXHoL07Lp8WO-14">
          <mxGeometry x="360" width="60" height="50" as="geometry">
            <mxRectangle width="60" height="50" as="alternateBounds" />
          </mxGeometry>
        </mxCell>
        <mxCell id="WESP8O3cPXHoL07Lp8WO-22" value="3" style="shape=partialRectangle;html=1;whiteSpace=wrap;connectable=0;strokeColor=#d79b00;overflow=hidden;fillColor=#ffe6cc;top=0;left=0;bottom=0;right=0;pointerEvents=1;fontFamily=Times New Roman;fontSize=20;shadow=0;" vertex="1" parent="WESP8O3cPXHoL07Lp8WO-14">
          <mxGeometry x="420" width="60" height="50" as="geometry">
            <mxRectangle width="60" height="50" as="alternateBounds" />
          </mxGeometry>
        </mxCell>
        <mxCell id="WESP8O3cPXHoL07Lp8WO-23" value="2" style="shape=partialRectangle;html=1;whiteSpace=wrap;connectable=0;strokeColor=#d79b00;overflow=hidden;fillColor=#ffe6cc;top=0;left=0;bottom=0;right=0;pointerEvents=1;fontFamily=Times New Roman;fontSize=20;shadow=0;" vertex="1" parent="WESP8O3cPXHoL07Lp8WO-14">
          <mxGeometry x="480" width="60" height="50" as="geometry">
            <mxRectangle width="60" height="50" as="alternateBounds" />
          </mxGeometry>
        </mxCell>
        <mxCell id="WESP8O3cPXHoL07Lp8WO-24" value="MA" style="text;html=1;align=center;verticalAlign=middle;resizable=0;points=[];autosize=1;strokeColor=none;fillColor=none;fontFamily=Times New Roman;fontSize=20;" vertex="1" parent="1">
          <mxGeometry x="20" y="335" width="60" height="40" as="geometry" />
        </mxCell>
        <mxCell id="WESP8O3cPXHoL07Lp8WO-26" value="" style="endArrow=classic;html=1;rounded=0;exitX=0.17;exitY=1.009;exitDx=0;exitDy=0;exitPerimeter=0;fontFamily=Times New Roman;" edge="1" parent="1">
          <mxGeometry width="50" height="50" relative="1" as="geometry">
            <mxPoint x="250" y="280" as="sourcePoint" />
            <mxPoint x="250" y="330" as="targetPoint" />
          </mxGeometry>
        </mxCell>
        <mxCell id="WESP8O3cPXHoL07Lp8WO-31" value="RA" style="text;html=1;align=center;verticalAlign=middle;resizable=0;points=[];autosize=1;strokeColor=none;fillColor=none;fontFamily=Times New Roman;fontSize=20;" vertex="1" parent="1">
          <mxGeometry x="25" y="435" width="50" height="40" as="geometry" />
        </mxCell>
        <mxCell id="WESP8O3cPXHoL07Lp8WO-32" value="" style="shape=table;startSize=0;container=1;collapsible=0;childLayout=tableLayout;fontFamily=Times New Roman;fontSize=20;" vertex="1" parent="1">
          <mxGeometry x="100" y="430" width="720" height="50" as="geometry" />
        </mxCell>
        <mxCell id="WESP8O3cPXHoL07Lp8WO-33" value="" style="shape=tableRow;horizontal=0;startSize=0;swimlaneHead=0;swimlaneBody=0;strokeColor=inherit;top=0;left=0;bottom=0;right=0;collapsible=0;dropTarget=0;fillColor=none;points=[[0,0.5],[1,0.5]];portConstraint=eastwest;fontFamily=Times New Roman;fontSize=20;" vertex="1" parent="WESP8O3cPXHoL07Lp8WO-32">
          <mxGeometry width="720" height="50" as="geometry" />
        </mxCell>
        <mxCell id="WESP8O3cPXHoL07Lp8WO-34" value="2" style="shape=partialRectangle;html=1;whiteSpace=wrap;connectable=0;strokeColor=#82b366;overflow=hidden;fillColor=#d5e8d4;top=0;left=0;bottom=0;right=0;pointerEvents=1;fontFamily=Times New Roman;fontSize=20;sketch=1;curveFitting=1;jiggle=2;" vertex="1" parent="WESP8O3cPXHoL07Lp8WO-33">
          <mxGeometry width="60" height="50" as="geometry">
            <mxRectangle width="60" height="50" as="alternateBounds" />
          </mxGeometry>
        </mxCell>
        <mxCell id="WESP8O3cPXHoL07Lp8WO-35" value="2" style="shape=partialRectangle;html=1;whiteSpace=wrap;connectable=0;strokeColor=#6c8ebf;overflow=hidden;fillColor=#dae8fc;top=0;left=0;bottom=0;right=0;pointerEvents=1;fontFamily=Times New Roman;fontSize=20;sketch=1;curveFitting=1;jiggle=2;" vertex="1" parent="WESP8O3cPXHoL07Lp8WO-33">
          <mxGeometry x="60" width="60" height="50" as="geometry">
            <mxRectangle width="60" height="50" as="alternateBounds" />
          </mxGeometry>
        </mxCell>
        <mxCell id="WESP8O3cPXHoL07Lp8WO-36" value="1" style="shape=partialRectangle;html=1;whiteSpace=wrap;connectable=0;strokeColor=#d79b00;overflow=hidden;fillColor=#ffe6cc;top=0;left=0;bottom=0;right=0;pointerEvents=1;fontFamily=Times New Roman;fontSize=20;" vertex="1" parent="WESP8O3cPXHoL07Lp8WO-33">
          <mxGeometry x="120" width="60" height="50" as="geometry">
            <mxRectangle width="60" height="50" as="alternateBounds" />
          </mxGeometry>
        </mxCell>
        <mxCell id="WESP8O3cPXHoL07Lp8WO-37" value="1" style="shape=partialRectangle;html=1;whiteSpace=wrap;connectable=0;strokeColor=#82b366;overflow=hidden;fillColor=#d5e8d4;top=0;left=0;bottom=0;right=0;pointerEvents=1;fontFamily=Times New Roman;fontSize=20;" vertex="1" parent="WESP8O3cPXHoL07Lp8WO-33">
          <mxGeometry x="180" width="60" height="50" as="geometry">
            <mxRectangle width="60" height="50" as="alternateBounds" />
          </mxGeometry>
        </mxCell>
        <mxCell id="WESP8O3cPXHoL07Lp8WO-38" value="2" style="shape=partialRectangle;html=1;whiteSpace=wrap;connectable=0;strokeColor=#6c8ebf;overflow=hidden;fillColor=#dae8fc;top=0;left=0;bottom=0;right=0;pointerEvents=1;fontFamily=Times New Roman;fontSize=20;sketch=1;curveFitting=1;jiggle=2;" vertex="1" parent="WESP8O3cPXHoL07Lp8WO-33">
          <mxGeometry x="240" width="60" height="50" as="geometry">
            <mxRectangle width="60" height="50" as="alternateBounds" />
          </mxGeometry>
        </mxCell>
        <mxCell id="WESP8O3cPXHoL07Lp8WO-39" value="1" style="shape=partialRectangle;html=1;whiteSpace=wrap;connectable=0;strokeColor=#82b366;overflow=hidden;fillColor=#d5e8d4;top=0;left=0;bottom=0;right=0;pointerEvents=1;fontFamily=Times New Roman;fontSize=20;" vertex="1" parent="WESP8O3cPXHoL07Lp8WO-33">
          <mxGeometry x="300" width="60" height="50" as="geometry">
            <mxRectangle width="60" height="50" as="alternateBounds" />
          </mxGeometry>
        </mxCell>
        <mxCell id="WESP8O3cPXHoL07Lp8WO-40" value="1" style="shape=partialRectangle;html=1;whiteSpace=wrap;connectable=0;strokeColor=#d79b00;overflow=hidden;fillColor=#ffe6cc;top=0;left=0;bottom=0;right=0;pointerEvents=1;fontFamily=Times New Roman;fontSize=20;" vertex="1" parent="WESP8O3cPXHoL07Lp8WO-33">
          <mxGeometry x="360" width="60" height="50" as="geometry">
            <mxRectangle width="60" height="50" as="alternateBounds" />
          </mxGeometry>
        </mxCell>
        <mxCell id="WESP8O3cPXHoL07Lp8WO-41" value="1" style="shape=partialRectangle;html=1;whiteSpace=wrap;connectable=0;strokeColor=#d79b00;overflow=hidden;fillColor=#ffe6cc;top=0;left=0;bottom=0;right=0;pointerEvents=1;fontFamily=Times New Roman;fontSize=20;" vertex="1" parent="WESP8O3cPXHoL07Lp8WO-33">
          <mxGeometry x="420" width="60" height="50" as="geometry">
            <mxRectangle width="60" height="50" as="alternateBounds" />
          </mxGeometry>
        </mxCell>
        <mxCell id="WESP8O3cPXHoL07Lp8WO-42" value="1" style="shape=partialRectangle;html=1;whiteSpace=wrap;connectable=0;strokeColor=#6c8ebf;overflow=hidden;fillColor=#dae8fc;top=0;left=0;bottom=0;right=0;pointerEvents=1;fontFamily=Times New Roman;fontSize=20;" vertex="1" parent="WESP8O3cPXHoL07Lp8WO-33">
          <mxGeometry x="480" width="60" height="50" as="geometry">
            <mxRectangle width="60" height="50" as="alternateBounds" />
          </mxGeometry>
        </mxCell>
        <mxCell id="WESP8O3cPXHoL07Lp8WO-43" value="2" style="shape=partialRectangle;html=1;whiteSpace=wrap;connectable=0;strokeColor=#82b366;overflow=hidden;fillColor=#d5e8d4;top=0;left=0;bottom=0;right=0;pointerEvents=1;fontFamily=Times New Roman;fontSize=20;" vertex="1" parent="WESP8O3cPXHoL07Lp8WO-33">
          <mxGeometry x="540" width="60" height="50" as="geometry">
            <mxRectangle width="60" height="50" as="alternateBounds" />
          </mxGeometry>
        </mxCell>
        <mxCell id="WESP8O3cPXHoL07Lp8WO-44" value="2" style="shape=partialRectangle;html=1;whiteSpace=wrap;connectable=0;strokeColor=#6c8ebf;overflow=hidden;fillColor=#dae8fc;top=0;left=0;bottom=0;right=0;pointerEvents=1;fontFamily=Times New Roman;fontSize=20;" vertex="1" parent="WESP8O3cPXHoL07Lp8WO-33">
          <mxGeometry x="600" width="60" height="50" as="geometry">
            <mxRectangle width="60" height="50" as="alternateBounds" />
          </mxGeometry>
        </mxCell>
        <mxCell id="WESP8O3cPXHoL07Lp8WO-45" value="1" style="shape=partialRectangle;html=1;whiteSpace=wrap;connectable=0;strokeColor=#d79b00;overflow=hidden;fillColor=#ffe6cc;top=0;left=0;bottom=0;right=0;pointerEvents=1;fontFamily=Times New Roman;fontSize=20;" vertex="1" parent="WESP8O3cPXHoL07Lp8WO-33">
          <mxGeometry x="660" width="60" height="50" as="geometry">
            <mxRectangle width="60" height="50" as="alternateBounds" />
          </mxGeometry>
        </mxCell>
        <mxCell id="WESP8O3cPXHoL07Lp8WO-46" value="RA" style="text;html=1;align=center;verticalAlign=middle;resizable=0;points=[];autosize=1;strokeColor=none;fillColor=none;fontFamily=Times New Roman;fontSize=20;" vertex="1" parent="1">
          <mxGeometry x="25" y="535" width="50" height="40" as="geometry" />
        </mxCell>
        <mxCell id="WESP8O3cPXHoL07Lp8WO-47" value="" style="shape=table;startSize=0;container=1;collapsible=0;childLayout=tableLayout;fontFamily=Times New Roman;fontSize=20;" vertex="1" parent="1">
          <mxGeometry x="100" y="530" width="720" height="50" as="geometry" />
        </mxCell>
        <mxCell id="WESP8O3cPXHoL07Lp8WO-48" value="" style="shape=tableRow;horizontal=0;startSize=0;swimlaneHead=0;swimlaneBody=0;strokeColor=inherit;top=0;left=0;bottom=0;right=0;collapsible=0;dropTarget=0;fillColor=none;points=[[0,0.5],[1,0.5]];portConstraint=eastwest;fontFamily=Times New Roman;fontSize=20;" vertex="1" parent="WESP8O3cPXHoL07Lp8WO-47">
          <mxGeometry width="720" height="50" as="geometry" />
        </mxCell>
        <mxCell id="WESP8O3cPXHoL07Lp8WO-49" value="2" style="shape=partialRectangle;html=1;whiteSpace=wrap;connectable=0;strokeColor=#82b366;overflow=hidden;fillColor=#d5e8d4;top=0;left=0;bottom=0;right=0;pointerEvents=1;fontFamily=Times New Roman;fontSize=20;sketch=1;curveFitting=1;jiggle=2;" vertex="1" parent="WESP8O3cPXHoL07Lp8WO-48">
          <mxGeometry width="60" height="50" as="geometry">
            <mxRectangle width="60" height="50" as="alternateBounds" />
          </mxGeometry>
        </mxCell>
        <mxCell id="WESP8O3cPXHoL07Lp8WO-50" value="2" style="shape=partialRectangle;html=1;whiteSpace=wrap;connectable=0;strokeColor=#6c8ebf;overflow=hidden;fillColor=#dae8fc;top=0;left=0;bottom=0;right=0;pointerEvents=1;fontFamily=Times New Roman;fontSize=20;sketch=1;curveFitting=1;jiggle=2;" vertex="1" parent="WESP8O3cPXHoL07Lp8WO-48">
          <mxGeometry x="60" width="60" height="50" as="geometry">
            <mxRectangle width="60" height="50" as="alternateBounds" />
          </mxGeometry>
        </mxCell>
        <mxCell id="WESP8O3cPXHoL07Lp8WO-51" value="1" style="shape=partialRectangle;html=1;whiteSpace=wrap;connectable=0;strokeColor=#d79b00;overflow=hidden;fillColor=#ffe6cc;top=0;left=0;bottom=0;right=0;pointerEvents=1;fontFamily=Times New Roman;fontSize=20;" vertex="1" parent="WESP8O3cPXHoL07Lp8WO-48">
          <mxGeometry x="120" width="60" height="50" as="geometry">
            <mxRectangle width="60" height="50" as="alternateBounds" />
          </mxGeometry>
        </mxCell>
        <mxCell id="WESP8O3cPXHoL07Lp8WO-52" value="1" style="shape=partialRectangle;html=1;whiteSpace=wrap;connectable=0;strokeColor=#82b366;overflow=hidden;fillColor=#d5e8d4;top=0;left=0;bottom=0;right=0;pointerEvents=1;fontFamily=Times New Roman;fontSize=20;" vertex="1" parent="WESP8O3cPXHoL07Lp8WO-48">
          <mxGeometry x="180" width="60" height="50" as="geometry">
            <mxRectangle width="60" height="50" as="alternateBounds" />
          </mxGeometry>
        </mxCell>
        <mxCell id="WESP8O3cPXHoL07Lp8WO-53" value="1" style="shape=partialRectangle;html=1;whiteSpace=wrap;connectable=0;strokeColor=#6c8ebf;overflow=hidden;fillColor=#dae8fc;top=0;left=0;bottom=0;right=0;pointerEvents=1;fontFamily=Times New Roman;fontSize=20;sketch=1;curveFitting=1;jiggle=2;" vertex="1" parent="WESP8O3cPXHoL07Lp8WO-48">
          <mxGeometry x="240" width="60" height="50" as="geometry">
            <mxRectangle width="60" height="50" as="alternateBounds" />
          </mxGeometry>
        </mxCell>
        <mxCell id="WESP8O3cPXHoL07Lp8WO-54" value="1" style="shape=partialRectangle;html=1;whiteSpace=wrap;connectable=0;strokeColor=#82b366;overflow=hidden;fillColor=#d5e8d4;top=0;left=0;bottom=0;right=0;pointerEvents=1;fontFamily=Times New Roman;fontSize=20;" vertex="1" parent="WESP8O3cPXHoL07Lp8WO-48">
          <mxGeometry x="300" width="60" height="50" as="geometry">
            <mxRectangle width="60" height="50" as="alternateBounds" />
          </mxGeometry>
        </mxCell>
        <mxCell id="WESP8O3cPXHoL07Lp8WO-55" value="1" style="shape=partialRectangle;html=1;whiteSpace=wrap;connectable=0;strokeColor=#d79b00;overflow=hidden;fillColor=#ffe6cc;top=0;left=0;bottom=0;right=0;pointerEvents=1;fontFamily=Times New Roman;fontSize=20;" vertex="1" parent="WESP8O3cPXHoL07Lp8WO-48">
          <mxGeometry x="360" width="60" height="50" as="geometry">
            <mxRectangle width="60" height="50" as="alternateBounds" />
          </mxGeometry>
        </mxCell>
        <mxCell id="WESP8O3cPXHoL07Lp8WO-56" value="1" style="shape=partialRectangle;html=1;whiteSpace=wrap;connectable=0;strokeColor=#d79b00;overflow=hidden;fillColor=#ffe6cc;top=0;left=0;bottom=0;right=0;pointerEvents=1;fontFamily=Times New Roman;fontSize=20;" vertex="1" parent="WESP8O3cPXHoL07Lp8WO-48">
          <mxGeometry x="420" width="60" height="50" as="geometry">
            <mxRectangle width="60" height="50" as="alternateBounds" />
          </mxGeometry>
        </mxCell>
        <mxCell id="WESP8O3cPXHoL07Lp8WO-57" value="1" style="shape=partialRectangle;html=1;whiteSpace=wrap;connectable=0;strokeColor=#6c8ebf;overflow=hidden;fillColor=#dae8fc;top=0;left=0;bottom=0;right=0;pointerEvents=1;fontFamily=Times New Roman;fontSize=20;" vertex="1" parent="WESP8O3cPXHoL07Lp8WO-48">
          <mxGeometry x="480" width="60" height="50" as="geometry">
            <mxRectangle width="60" height="50" as="alternateBounds" />
          </mxGeometry>
        </mxCell>
        <mxCell id="WESP8O3cPXHoL07Lp8WO-58" value="2" style="shape=partialRectangle;html=1;whiteSpace=wrap;connectable=0;strokeColor=#82b366;overflow=hidden;fillColor=#d5e8d4;top=0;left=0;bottom=0;right=0;pointerEvents=1;fontFamily=Times New Roman;fontSize=20;" vertex="1" parent="WESP8O3cPXHoL07Lp8WO-48">
          <mxGeometry x="540" width="60" height="50" as="geometry">
            <mxRectangle width="60" height="50" as="alternateBounds" />
          </mxGeometry>
        </mxCell>
        <mxCell id="WESP8O3cPXHoL07Lp8WO-59" value="2" style="shape=partialRectangle;html=1;whiteSpace=wrap;connectable=0;strokeColor=#6c8ebf;overflow=hidden;fillColor=#dae8fc;top=0;left=0;bottom=0;right=0;pointerEvents=1;fontFamily=Times New Roman;fontSize=20;" vertex="1" parent="WESP8O3cPXHoL07Lp8WO-48">
          <mxGeometry x="600" width="60" height="50" as="geometry">
            <mxRectangle width="60" height="50" as="alternateBounds" />
          </mxGeometry>
        </mxCell>
        <mxCell id="WESP8O3cPXHoL07Lp8WO-60" value="1" style="shape=partialRectangle;html=1;whiteSpace=wrap;connectable=0;strokeColor=#d79b00;overflow=hidden;fillColor=#ffe6cc;top=0;left=0;bottom=0;right=0;pointerEvents=1;fontFamily=Times New Roman;fontSize=20;" vertex="1" parent="WESP8O3cPXHoL07Lp8WO-48">
          <mxGeometry x="660" width="60" height="50" as="geometry">
            <mxRectangle width="60" height="50" as="alternateBounds" />
          </mxGeometry>
        </mxCell>
        <mxCell id="WESP8O3cPXHoL07Lp8WO-63" value="" style="endArrow=classic;html=1;rounded=0;exitX=0.17;exitY=1.009;exitDx=0;exitDy=0;exitPerimeter=0;fontFamily=Times New Roman;" edge="1" parent="1">
          <mxGeometry width="50" height="50" relative="1" as="geometry">
            <mxPoint x="369.86" y="480" as="sourcePoint" />
            <mxPoint x="369.86" y="530" as="targetPoint" />
          </mxGeometry>
        </mxCell>
        <mxCell id="WESP8O3cPXHoL07Lp8WO-64" value="" style="shape=curlyBracket;whiteSpace=wrap;html=1;rounded=1;labelPosition=left;verticalLabelPosition=middle;align=right;verticalAlign=middle;rotation=90;fontFamily=Times New Roman;" vertex="1" parent="1">
          <mxGeometry x="180" y="150" width="20" height="120" as="geometry" />
        </mxCell>
        <mxCell id="WESP8O3cPXHoL07Lp8WO-65" value="" style="shape=curlyBracket;whiteSpace=wrap;html=1;rounded=1;labelPosition=left;verticalLabelPosition=middle;align=right;verticalAlign=middle;rotation=90;fontFamily=Times New Roman;" vertex="1" parent="1">
          <mxGeometry x="360" y="150" width="20" height="120" as="geometry" />
        </mxCell>
        <mxCell id="WESP8O3cPXHoL07Lp8WO-66" value="" style="shape=curlyBracket;whiteSpace=wrap;html=1;rounded=1;labelPosition=left;verticalLabelPosition=middle;align=right;verticalAlign=middle;rotation=90;fontFamily=Times New Roman;" vertex="1" parent="1">
          <mxGeometry x="540" y="150" width="20" height="120" as="geometry" />
        </mxCell>
        <mxCell id="WESP8O3cPXHoL07Lp8WO-67" value="Job&lt;sub&gt;1&lt;/sub&gt;" style="text;html=1;align=center;verticalAlign=middle;resizable=0;points=[];autosize=1;strokeColor=none;fillColor=none;fontSize=20;fontFamily=Times New Roman;fontStyle=2" vertex="1" parent="1">
          <mxGeometry x="160" y="173" width="60" height="40" as="geometry" />
        </mxCell>
        <mxCell id="WESP8O3cPXHoL07Lp8WO-68" value="Job&lt;sub&gt;2&lt;/sub&gt;" style="text;html=1;align=center;verticalAlign=middle;resizable=0;points=[];autosize=1;strokeColor=none;fillColor=none;fontSize=20;fontFamily=Times New Roman;fontStyle=2" vertex="1" parent="1">
          <mxGeometry x="340" y="173" width="60" height="40" as="geometry" />
        </mxCell>
        <mxCell id="WESP8O3cPXHoL07Lp8WO-69" value="Job&lt;sub&gt;3&lt;/sub&gt;" style="text;html=1;align=center;verticalAlign=middle;resizable=0;points=[];autosize=1;strokeColor=none;fillColor=none;fontSize=20;fontFamily=Times New Roman;fontStyle=2" vertex="1" parent="1">
          <mxGeometry x="520" y="173" width="60" height="40" as="geometry" />
        </mxCell>
        <mxCell id="WESP8O3cPXHoL07Lp8WO-70" value="O&lt;sub&gt;11&lt;/sub&gt;" style="text;html=1;align=center;verticalAlign=middle;resizable=0;points=[];autosize=1;strokeColor=none;fillColor=none;fontSize=20;fontFamily=Times New Roman;fontStyle=2" vertex="1" parent="1">
          <mxGeometry x="105" y="395" width="50" height="40" as="geometry" />
        </mxCell>
        <mxCell id="WESP8O3cPXHoL07Lp8WO-73" value="O&lt;sub&gt;21&lt;/sub&gt;" style="text;html=1;align=center;verticalAlign=middle;resizable=0;points=[];autosize=1;strokeColor=none;fillColor=none;fontSize=20;fontFamily=Times New Roman;fontStyle=2" vertex="1" parent="1">
          <mxGeometry x="165" y="395" width="50" height="40" as="geometry" />
        </mxCell>
        <mxCell id="WESP8O3cPXHoL07Lp8WO-74" value="O&lt;sub&gt;31&lt;/sub&gt;" style="text;html=1;align=center;verticalAlign=middle;resizable=0;points=[];autosize=1;strokeColor=none;fillColor=none;fontSize=20;fontFamily=Times New Roman;fontStyle=2" vertex="1" parent="1">
          <mxGeometry x="225" y="395" width="50" height="40" as="geometry" />
        </mxCell>
        <mxCell id="WESP8O3cPXHoL07Lp8WO-75" value="O&lt;sub&gt;12&lt;/sub&gt;" style="text;html=1;align=center;verticalAlign=middle;resizable=0;points=[];autosize=1;strokeColor=none;fillColor=none;fontSize=20;fontFamily=Times New Roman;fontStyle=2" vertex="1" parent="1">
          <mxGeometry x="285" y="395" width="50" height="40" as="geometry" />
        </mxCell>
        <mxCell id="WESP8O3cPXHoL07Lp8WO-76" value="O&lt;sub&gt;22&lt;/sub&gt;" style="text;html=1;align=center;verticalAlign=middle;resizable=0;points=[];autosize=1;strokeColor=none;fillColor=none;fontSize=20;fontFamily=Times New Roman;fontStyle=2" vertex="1" parent="1">
          <mxGeometry x="345" y="395" width="50" height="40" as="geometry" />
        </mxCell>
        <mxCell id="WESP8O3cPXHoL07Lp8WO-77" value="O&lt;sub&gt;13&lt;/sub&gt;" style="text;html=1;align=center;verticalAlign=middle;resizable=0;points=[];autosize=1;strokeColor=none;fillColor=none;fontSize=20;fontFamily=Times New Roman;fontStyle=2" vertex="1" parent="1">
          <mxGeometry x="409" y="395" width="50" height="40" as="geometry" />
        </mxCell>
        <mxCell id="WESP8O3cPXHoL07Lp8WO-78" value="O&lt;sub&gt;32&lt;/sub&gt;" style="text;html=1;align=center;verticalAlign=middle;resizable=0;points=[];autosize=1;strokeColor=none;fillColor=none;fontSize=20;fontFamily=Times New Roman;fontStyle=2" vertex="1" parent="1">
          <mxGeometry x="465" y="395" width="50" height="40" as="geometry" />
        </mxCell>
        <mxCell id="WESP8O3cPXHoL07Lp8WO-79" value="O&lt;sub&gt;33&lt;/sub&gt;" style="text;html=1;align=center;verticalAlign=middle;resizable=0;points=[];autosize=1;strokeColor=none;fillColor=none;fontSize=20;fontFamily=Times New Roman;fontStyle=2" vertex="1" parent="1">
          <mxGeometry x="525" y="395" width="50" height="40" as="geometry" />
        </mxCell>
        <mxCell id="WESP8O3cPXHoL07Lp8WO-80" value="O&lt;sub&gt;23&lt;/sub&gt;" style="text;html=1;align=center;verticalAlign=middle;resizable=0;points=[];autosize=1;strokeColor=none;fillColor=none;fontSize=20;fontFamily=Times New Roman;fontStyle=2" vertex="1" parent="1">
          <mxGeometry x="585" y="395" width="50" height="40" as="geometry" />
        </mxCell>
        <mxCell id="WESP8O3cPXHoL07Lp8WO-84" value="Job&lt;sub&gt;1&lt;/sub&gt;" style="text;html=1;align=center;verticalAlign=middle;resizable=0;points=[];autosize=1;strokeColor=none;fillColor=none;fontSize=20;fontFamily=Times New Roman;fontStyle=2" vertex="1" parent="1">
          <mxGeometry x="640" y="395" width="60" height="40" as="geometry" />
        </mxCell>
        <mxCell id="WESP8O3cPXHoL07Lp8WO-85" value="Job&lt;sub&gt;2&lt;/sub&gt;" style="text;html=1;align=center;verticalAlign=middle;resizable=0;points=[];autosize=1;strokeColor=none;fillColor=none;fontSize=20;fontFamily=Times New Roman;fontStyle=2" vertex="1" parent="1">
          <mxGeometry x="700" y="395" width="60" height="40" as="geometry" />
        </mxCell>
        <mxCell id="WESP8O3cPXHoL07Lp8WO-86" value="Job&lt;sub&gt;3&lt;/sub&gt;" style="text;html=1;align=center;verticalAlign=middle;resizable=0;points=[];autosize=1;strokeColor=none;fillColor=none;fontSize=20;fontFamily=Times New Roman;fontStyle=2" vertex="1" parent="1">
          <mxGeometry x="760" y="395" width="60" height="40" as="geometry" />
        </mxCell>
      </root>
    </mxGraphModel>
  </diagram>
</mxfile>
